<svg width="309" height="30" viewBox="0 0 309 30" fill="none" xmlns="http://www.w3.org/2000/svg">
<path d="M2.8 16.92V13.76H10.32C11.9467 13.76 13.2 13.3467 14.08 12.52C14.96 11.6933 15.4 10.5733 15.4 9.16C15.4 7.82667 14.96 6.72 14.08 5.84C13.2267 4.96 11.9867 4.52 10.36 4.52H2.8V1.24H10.48C12.24 1.24 13.7733 1.58667 15.08 2.28C16.3867 2.94667 17.3867 3.86667 18.08 5.04C18.8 6.21333 19.16 7.56 19.16 9.08C19.16 10.6533 18.8 12.0267 18.08 13.2C17.3867 14.3733 16.3867 15.2933 15.08 15.96C13.7733 16.6 12.24 16.92 10.48 16.92H2.8ZM0.28 29V1.24H4.04V29H0.28ZM16.28 29L6.2 16.56L9.76 15.32L21.04 29H16.28ZM37.0588 29.4C35.1121 29.4 33.2854 29.04 31.5788 28.32C29.8988 27.5733 28.4188 26.5467 27.1388 25.24C25.8854 23.9333 24.8988 22.4133 24.1788 20.68C23.4588 18.9467 23.0988 17.08 23.0988 15.08C23.0988 13.08 23.4588 11.2267 24.1788 9.52C24.8988 7.78667 25.8988 6.26667 27.1788 4.96C28.4588 3.65333 29.9521 2.64 31.6588 1.92C33.3921 1.2 35.2721 0.839998 37.2988 0.839998C39.5121 0.839998 41.5521 1.26666 43.4188 2.12C45.2854 2.97333 46.8454 4.2 48.0988 5.8L45.4988 8.4C44.6188 7.12 43.4588 6.14667 42.0188 5.48C40.5788 4.78667 39.0054 4.44 37.2988 4.44C35.2721 4.44 33.4721 4.89333 31.8988 5.8C30.3521 6.70667 29.1388 7.96 28.2588 9.56C27.4054 11.16 26.9788 13 26.9788 15.08C26.9788 17.1867 27.4188 19.04 28.2988 20.64C29.1788 22.24 30.3654 23.4933 31.8588 24.4C33.3521 25.3067 35.0588 25.76 36.9788 25.76C38.9254 25.76 40.6054 25.3867 42.0188 24.64C43.4588 23.8933 44.5654 22.8 45.3388 21.36C46.1121 19.8933 46.4988 18.1067 46.4988 16L48.7788 17.64H36.7788V14.2H50.3788V14.76C50.3788 17.9867 49.8054 20.6933 48.6588 22.88C47.5388 25.04 45.9654 26.6667 43.9388 27.76C41.9388 28.8533 39.6454 29.4 37.0588 29.4ZM63.7566 29V1.24H67.5166V29H63.7566ZM66.3166 16.8V13.36H80.7966V16.8H66.3166ZM66.3166 4.68V1.24H81.4766V4.68H66.3166ZM85.8128 29V10H89.4128V29H85.8128ZM87.6128 6.2C86.9461 6.2 86.3995 5.98666 85.9728 5.56C85.5461 5.10667 85.3328 4.54667 85.3328 3.88C85.3328 3.24 85.5461 2.70667 85.9728 2.28C86.3995 1.82666 86.9461 1.6 87.6128 1.6C88.2795 1.6 88.8261 1.82666 89.2528 2.28C89.6795 2.70667 89.8928 3.24 89.8928 3.88C89.8928 4.54667 89.6795 5.10667 89.2528 5.56C88.8261 5.98666 88.2795 6.2 87.6128 6.2ZM108.158 29V17.92C108.158 16.48 107.705 15.2933 106.798 14.36C105.891 13.4267 104.718 12.96 103.278 12.96C102.318 12.96 101.465 13.1733 100.718 13.6C99.9715 14.0267 99.3848 14.6133 98.9581 15.36C98.5315 16.1067 98.3181 16.96 98.3181 17.92L96.8381 17.08C96.8381 15.64 97.1581 14.36 97.7981 13.24C98.4381 12.12 99.3315 11.24 100.478 10.6C101.625 9.93333 102.918 9.6 104.358 9.6C105.798 9.6 107.065 9.96 108.158 10.68C109.278 11.4 110.158 12.3467 110.798 13.52C111.438 14.6667 111.758 15.8933 111.758 17.2V29H108.158ZM94.7181 29V10H98.3181V29H94.7181ZM124.712 29.4C122.979 29.4 121.406 28.9733 119.992 28.12C118.579 27.24 117.459 26.0533 116.632 24.56C115.832 23.0667 115.432 21.3867 115.432 19.52C115.432 17.6533 115.832 15.9733 116.632 14.48C117.459 12.9867 118.566 11.8 119.952 10.92C121.366 10.04 122.952 9.6 124.712 9.6C126.152 9.6 127.432 9.90667 128.552 10.52C129.699 11.1067 130.619 11.9333 131.312 13C132.006 14.04 132.392 15.2533 132.472 16.64V22.36C132.392 23.72 132.006 24.9333 131.312 26C130.646 27.0667 129.739 27.9067 128.592 28.52C127.472 29.1067 126.179 29.4 124.712 29.4ZM125.312 26C127.099 26 128.539 25.4 129.632 24.2C130.726 22.9733 131.272 21.4133 131.272 19.52C131.272 18.2133 131.019 17.08 130.512 16.12C130.032 15.1333 129.339 14.3733 128.432 13.84C127.526 13.28 126.472 13 125.272 13C124.072 13 123.006 13.28 122.072 13.84C121.166 14.4 120.446 15.1733 119.912 16.16C119.406 17.12 119.152 18.2267 119.152 19.48C119.152 20.76 119.406 21.8933 119.912 22.88C120.446 23.84 121.179 24.6 122.112 25.16C123.046 25.72 124.112 26 125.312 26ZM131.032 29V23.88L131.712 19.24L131.032 14.64V10H134.672V29H131.032ZM153.353 29V17.92C153.353 16.48 152.9 15.2933 151.993 14.36C151.087 13.4267 149.913 12.96 148.473 12.96C147.513 12.96 146.66 13.1733 145.913 13.6C145.167 14.0267 144.58 14.6133 144.153 15.36C143.727 16.1067 143.513 16.96 143.513 17.92L142.033 17.08C142.033 15.64 142.353 14.36 142.993 13.24C143.633 12.12 144.527 11.24 145.673 10.6C146.82 9.93333 148.113 9.6 149.553 9.6C150.993 9.6 152.26 9.96 153.353 10.68C154.473 11.4 155.353 12.3467 155.993 13.52C156.633 14.6667 156.953 15.8933 156.953 17.2V29H153.353ZM139.913 29V10H143.513V29H139.913ZM170.508 29.4C168.641 29.4 166.948 28.96 165.428 28.08C163.934 27.2 162.748 26.0133 161.868 24.52C161.014 23 160.588 21.32 160.588 19.48C160.588 17.6133 161.014 15.9333 161.868 14.44C162.748 12.9467 163.934 11.7733 165.428 10.92C166.948 10.04 168.641 9.6 170.508 9.6C171.974 9.6 173.334 9.88 174.588 10.44C175.841 10.9733 176.921 11.76 177.828 12.8L175.428 15.2C174.841 14.5067 174.121 13.9867 173.268 13.64C172.441 13.2667 171.521 13.08 170.508 13.08C169.308 13.08 168.241 13.36 167.308 13.92C166.374 14.4533 165.641 15.2 165.108 16.16C164.574 17.12 164.308 18.2267 164.308 19.48C164.308 20.7333 164.574 21.84 165.108 22.8C165.641 23.76 166.374 24.52 167.308 25.08C168.241 25.64 169.308 25.92 170.508 25.92C171.521 25.92 172.441 25.7467 173.268 25.4C174.121 25.0267 174.854 24.4933 175.468 23.8L177.828 26.2C176.948 27.2133 175.868 28 174.588 28.56C173.334 29.12 171.974 29.4 170.508 29.4ZM181.438 29V10H185.038V29H181.438ZM183.238 6.2C182.571 6.2 182.024 5.98666 181.598 5.56C181.171 5.10667 180.958 4.54667 180.958 3.88C180.958 3.24 181.171 2.70667 181.598 2.28C182.024 1.82666 182.571 1.6 183.238 1.6C183.904 1.6 184.451 1.82666 184.878 2.28C185.304 2.70667 185.518 3.24 185.518 3.88C185.518 4.54667 185.304 5.10667 184.878 5.56C184.451 5.98666 183.904 6.2 183.238 6.2ZM198.423 29.4C196.69 29.4 195.116 28.9733 193.703 28.12C192.29 27.24 191.17 26.0533 190.343 24.56C189.543 23.0667 189.143 21.3867 189.143 19.52C189.143 17.6533 189.543 15.9733 190.343 14.48C191.17 12.9867 192.276 11.8 193.663 10.92C195.076 10.04 196.663 9.6 198.423 9.6C199.863 9.6 201.143 9.90667 202.263 10.52C203.41 11.1067 204.33 11.9333 205.023 13C205.716 14.04 206.103 15.2533 206.183 16.64V22.36C206.103 23.72 205.716 24.9333 205.023 26C204.356 27.0667 203.45 27.9067 202.303 28.52C201.183 29.1067 199.89 29.4 198.423 29.4ZM199.023 26C200.81 26 202.25 25.4 203.343 24.2C204.436 22.9733 204.983 21.4133 204.983 19.52C204.983 18.2133 204.73 17.08 204.223 16.12C203.743 15.1333 203.05 14.3733 202.143 13.84C201.236 13.28 200.183 13 198.983 13C197.783 13 196.716 13.28 195.783 13.84C194.876 14.4 194.156 15.1733 193.623 16.16C193.116 17.12 192.863 18.2267 192.863 19.48C192.863 20.76 193.116 21.8933 193.623 22.88C194.156 23.84 194.89 24.6 195.823 25.16C196.756 25.72 197.823 26 199.023 26ZM204.743 29V23.88L205.423 19.24L204.743 14.64V10H208.383V29H204.743ZM213.624 29V0.439998H217.224V29H213.624ZM231.452 29V1.24H234.092L235.212 5.6V29H231.452ZM250.652 29L233.612 6.24L234.092 1.24L251.172 23.96L250.652 29ZM250.652 29L249.532 24.88V1.24H253.292V29H250.652ZM272.45 29.4C270.45 29.4 268.597 29.04 266.89 28.32C265.184 27.5733 263.69 26.5467 262.41 25.24C261.157 23.9333 260.184 22.4133 259.49 20.68C258.797 18.9467 258.45 17.0933 258.45 15.12C258.45 13.12 258.797 11.2533 259.49 9.52C260.184 7.78667 261.157 6.28 262.41 5C263.69 3.69333 265.17 2.68 266.85 1.96C268.557 1.21333 270.41 0.839998 272.41 0.839998C274.597 0.839998 276.517 1.21333 278.17 1.96C279.824 2.70667 281.29 3.72 282.57 5L279.97 7.6C279.09 6.61333 278.01 5.84 276.73 5.28C275.477 4.72 274.037 4.44 272.41 4.44C270.944 4.44 269.597 4.70667 268.37 5.24C267.144 5.74666 266.077 6.48 265.17 7.44C264.264 8.4 263.557 9.53333 263.05 10.84C262.57 12.1467 262.33 13.5733 262.33 15.12C262.33 16.6667 262.57 18.0933 263.05 19.4C263.557 20.7067 264.264 21.84 265.17 22.8C266.077 23.76 267.144 24.5067 268.37 25.04C269.597 25.5467 270.944 25.8 272.41 25.8C274.144 25.8 275.65 25.52 276.93 24.96C278.21 24.3733 279.29 23.5867 280.17 22.6L282.77 25.16C281.49 26.4933 279.984 27.5333 278.25 28.28C276.544 29.0267 274.61 29.4 272.45 29.4ZM289.909 16.92V13.76H297.429C299.056 13.76 300.309 13.3467 301.189 12.52C302.069 11.6933 302.509 10.5733 302.509 9.16C302.509 7.82667 302.069 6.72 301.189 5.84C300.336 4.96 299.096 4.52 297.469 4.52H289.909V1.24H297.589C299.349 1.24 300.883 1.58667 302.189 2.28C303.496 2.94667 304.496 3.86667 305.189 5.04C305.909 6.21333 306.269 7.56 306.269 9.08C306.269 10.6533 305.909 12.0267 305.189 13.2C304.496 14.3733 303.496 15.2933 302.189 15.96C300.883 16.6 299.349 16.92 297.589 16.92H289.909ZM287.389 29V1.24H291.149V29H287.389ZM303.389 29L293.309 16.56L296.869 15.32L308.149 29H303.389Z" fill="white"/>
</svg>
